USFL
nRows=400
nColumns=2
inDegrees=yes
endheader
time	soleus_r	
0	 36.783947	
0.0332661	 36.838114	
0.0665323	 36.739634	
0.0997984	 36.713293	
0.133065	 36.746526	
0.166331	 36.676522	
0.199597	 36.654334	
0.232863	 36.625039	
0.266129	 36.610869	
0.299395	 36.577628	
0.332661	 36.563221	
0.365927	 36.576690	
0.399194	 36.538386	
0.43246	 36.577879	
0.465726	 36.622131	
0.498992	 36.620355	
0.532258	 36.599868	
0.565524	 36.648365	
0.59879	 36.659363	
0.632056	 36.621924	
0.665323	 36.560376	
0.698589	 36.519686	
0.731855	 36.522237	
0.765121	 36.468898	
0.798387	 36.451832	
0.831653	 36.425738	
0.864919	 36.437095	
0.898185	 36.522294	
0.931452	 36.567503	
0.964718	 36.541449	
0.997984	 36.523513	
1.03125	 36.565318	
1.06452	 36.578619	
1.09778	 36.564356	
1.13105	 36.585024	
1.16431	 32.611288	
1.19758	 32.686469	
1.23085	 32.676579	
1.26411	 32.681759	
1.29738	 32.682559	
1.33065	 32.670833	
1.36391	 32.651896	
1.39718	 32.597517	
1.43044	 32.571092	
1.46371	 32.669105	
1.49698	 32.679766	
1.53024	 32.661521	
1.56351	 32.647760	
1.59677	 32.643791	
1.63004	 32.661803	
1.66331	 32.645215	
1.69657	 32.614264	
1.72984	 32.601116	
1.7631	 32.639895	
1.79637	 32.600201	
1.82964	 32.612208	
1.8629	 32.670030	
1.89617	 32.709124	
1.92944	 32.654927	
1.9627	 32.689448	
1.99597	 32.718159	
2.02923	 32.741231	
2.0625	 32.651720	
2.09577	 32.704257	
2.12903	 32.671259	
2.1623	 32.631990	
2.19556	 32.653009	
2.22883	 32.639613	
2.2621	 32.645185	
2.29536	 32.615815	
2.32863	 32.536740	
2.3619	 32.585510	
2.39516	 32.591470	
2.42843	 32.586942	
2.46169	 32.585897	
2.49496	 32.587867	
2.52823	 32.584495	
2.56149	 32.570842	
2.59476	 32.585697	
2.62802	 32.560190	
2.66129	 32.530627	
2.69456	 32.532080	
2.72782	 32.526544	
2.76109	 32.516602	
2.79435	 32.541151	
2.82762	 32.582977	
2.86089	 32.651112	
2.89415	 32.621162	
2.92742	 32.617643	
2.96069	 32.612775	
2.99395	 32.642263	
3.02722	 32.694607	
3.06048	 32.713752	
3.09375	 32.666168	
3.12702	 32.659962	
3.16028	 32.676537	
3.19355	 32.632633	
3.22681	 32.575913	
3.26008	 32.581686	
3.29335	 32.596105	
3.32661	 32.586782	
3.35988	 32.634994	
3.39315	 32.672728	
3.42641	 32.688289	
3.45968	 32.683427	
3.49294	 32.689760	
3.52621	 32.688972	
3.55948	 32.680403	
3.59274	 32.669939	
3.62601	 32.627463	
3.65927	 32.578101	
3.69254	 32.560618	
3.72581	 32.609136	
3.75907	 32.633119	
3.79234	 32.648465	
3.8256	 32.665228	
3.85887	 32.666195	
3.89214	 32.673550	
3.9254	 32.661147	
3.95867	 32.749077	
3.99194	 32.735031	
4.0252	 32.738987	
4.05847	 32.791052	
4.09173	 32.733348	
4.125	 32.694348	
4.15827	 32.685563	
4.19153	 32.679966	
4.2248	 32.667978	
4.25806	 32.630305	
4.29133	 32.650272	
4.3246	 32.685014	
4.35786	 32.738698	
4.39113	 32.764510	
4.4244	 32.738452	
4.45766	 32.770493	
4.49093	 32.791413	
4.52419	 32.816061	
4.55746	 32.797412	
4.59073	 32.767979	
4.62399	 32.758979	
4.65726	 32.769098	
4.69052	 32.803120	
4.72379	 32.860919	
4.75706	 32.864812	
4.79032	 32.859796	
4.82359	 32.843214	
4.85685	 32.836419	
4.89012	 32.788101	
4.92339	 32.815439	
4.95665	 32.787734	
4.98992	 32.739132	
5.02319	 32.737564	
5.05645	 32.600315	
5.08972	 32.591226	
5.12298	 32.481378	
5.15625	 32.427351	
5.18952	 32.405031	
5.22278	 32.433745	
5.25605	 32.488110	
5.28931	 32.444354	
5.32258	 32.440315	
5.35585	 32.438622	
5.38911	 32.444548	
5.42238	 32.477079	
5.45565	 32.504989	
5.48891	 32.530556	
5.52218	 32.492231	
5.55544	 32.516649	
5.58871	 32.506159	
5.62198	 32.484063	
5.65524	 32.463955	
5.68851	 32.416175	
5.72177	 32.459114	
5.75504	 32.408061	
5.78831	 32.381399	
5.82157	 32.394483	
5.85484	 32.401214	
5.8881	 32.386772	
5.92137	 32.430602	
5.95464	 32.468884	
5.9879	 32.469625	
6.02117	 32.495501	
6.05444	 32.521312	
6.0877	 32.530134	
6.12097	 32.485798	
6.15423	 32.496822	
6.1875	 32.490664	
6.22077	 32.499132	
6.25403	 32.500622	
6.2873	 32.479735	
6.32056	 32.458544	
6.35383	 32.442241	
6.3871	 32.437913	
6.42036	 32.394898	
6.45363	 32.386974	
6.4869	 32.263053	
6.52016	 32.236255	
6.55343	 32.204901	
6.58669	 32.189123	
6.61996	 32.162462	
6.65323	 32.180738	
6.68649	 32.205743	
6.71976	 32.181826	
6.75302	 32.181371	
6.78629	 32.225902	
6.81956	 32.168677	
6.85282	 32.134654	
6.88609	 32.126997	
6.91935	 32.119449	
6.95262	 32.104432	
6.98589	 32.111841	
7.01915	 32.134090	
7.05242	 32.094875	
7.08569	 32.068547	
7.11895	 32.113776	
7.15222	 32.077007	
7.18548	 32.047833	
7.21875	 31.983638	
7.25202	 31.962807	
7.28528	 31.939628	
7.31855	 31.927643	
7.35181	 31.901974	
7.38508	 31.936349	
7.41835	 31.955209	
7.45161	 31.921240	
7.48488	 31.899069	
7.51815	 31.845245	
7.55141	 31.835683	
7.58468	 31.779163	
7.61794	 31.797943	
7.65121	 31.763770	
7.68448	 31.750990	
7.71774	 31.761261	
7.75101	 31.817431	
7.78427	 31.731176	
7.81754	 31.603823	
7.85081	 31.540433	
7.88407	 31.477405	
7.91734	 31.497218	
7.9506	 31.677141	
7.98387	 31.722138	
8.01714	 31.647678	
8.0504	 31.584870	
8.08367	 31.563193	
8.11694	 31.590937	
8.1502	 31.711993	
8.18347	 31.668520	
8.21673	 31.797643	
8.25	 31.847182	
8.28327	 31.764663	
8.31653	 31.784823	
8.3498	 31.837407	
8.38306	 31.895041	
8.41633	 31.930667	
8.4496	 31.919083	
8.48286	 31.934598	
8.51613	 31.955153	
8.5494	 31.942993	
8.58266	 32.000119	
8.61593	 31.959977	
8.64919	 32.028249	
8.68246	 32.152538	
8.71573	 32.158963	
8.74899	 32.212372	
8.78226	 32.325956	
8.81552	 32.336293	
8.84879	 32.358435	
8.88206	 32.325600	
8.91532	 32.311817	
8.94859	 32.311833	
8.98185	 32.330571	
9.01512	 32.343565	
9.04839	 32.355868	
9.08165	 32.313180	
9.11492	 32.373816	
9.14819	 32.441381	
9.18145	 32.463996	
9.21472	 32.537024	
9.24798	 32.578551	
9.28125	 32.612385	
9.31452	 32.642148	
9.34778	 32.709650	
9.38105	 32.661833	
9.41431	 32.641326	
9.44758	 32.657782	
9.48085	 32.629477	
9.51411	 32.606916	
9.54738	 32.627850	
9.58065	 32.610893	
9.61391	 32.652561	
9.64718	 32.678171	
9.68044	 32.709457	
9.71371	 32.739762	
9.74698	 32.697716	
9.78024	 32.683457	
9.81351	 32.730137	
9.84677	 32.732633	
9.88004	 32.708735	
9.91331	 32.737958	
9.94657	 32.723738	
9.97984	 32.705972	
10.0131	 32.704835	
10.0464	 32.669497	
10.0796	 32.691172	
10.1129	 32.709846	
10.1462	 32.723345	
10.1794	 32.745239	
10.2127	 32.733596	
10.246	 32.736634	
10.2792	 32.764341	
10.3125	 32.792462	
10.3458	 32.825572	
10.379	 32.812074	
10.4123	 32.856589	
10.4456	 32.861028	
10.4788	 32.872268	
10.5121	 32.892215	
10.5454	 32.919693	
10.5786	 32.897302	
10.6119	 32.854023	
10.6452	 32.862253	
10.6784	 32.825795	
10.7117	 32.789728	
10.745	 32.783870	
10.7782	 32.784600	
10.8115	 32.800709	
10.8448	 32.795932	
10.878	 32.825740	
10.9113	 32.832830	
10.9446	 32.833372	
10.9778	 32.824436	
11.0111	 32.809941	
11.0444	 32.810458	
11.0776	 32.820589	
11.1109	 32.796756	
11.1442	 32.827545	
11.1774	 32.812098	
11.2107	 32.829930	
11.244	 32.817818	
11.2772	 32.801471	
11.3105	 32.824508	
11.3437	 32.830198	
11.377	 32.850469	
11.4103	 32.812362	
11.4435	 32.747929	
11.4768	 32.739645	
11.5101	 32.767815	
11.5433	 32.798226	
11.5766	 32.853777	
11.6099	 32.864304	
11.6431	 32.867345	
11.6764	 32.837662	
11.7097	 32.766179	
11.7429	 32.778049	
11.7762	 32.729915	
11.8095	 32.753406	
11.8427	 32.774793	
11.876	 32.717741	
11.9093	 32.692291	
11.9425	 32.728903	
11.9758	 32.748552	
12.0091	 32.731722	
12.0423	 32.728987	
12.0756	 32.723810	
12.1089	 32.745374	
12.1421	 32.738615	
12.1754	 32.723743	
12.2087	 32.729820	
12.2419	 32.734235	
12.2752	 32.733300	
12.3085	 32.739286	
12.3417	 32.718414	
12.375	 32.710239	
12.4083	 32.728436	
12.4415	 32.775864	
12.4748	 32.800177	
12.5081	 32.781755	
12.5413	 32.730416	
12.5746	 32.726408	
12.6079	 32.744407	
12.6411	 32.734875	
12.6744	 32.749521	
12.7077	 32.733817	
12.7409	 32.696580	
12.7742	 32.740826	
12.8075	 32.789138	
12.8407	 32.789838	
12.874	 32.729741	
12.9073	 32.675460	
12.9405	 32.726499	
12.9738	 32.783051	
13.0071	 32.857402	
13.0403	 32.817936	
13.0736	 32.825509	
13.1069	 32.835124	
13.1401	 32.859352	
13.1734	 32.805959	
13.2067	 32.772841	
13.2399	 32.753961	
13.2732	 32.799359	
